<svg xmlns="http://www.w3.org/2000/svg" viewBox="0 0 244 244"><defs><style>.cls-1{fill:#047732;}.cls-2{fill:#fff;}</style></defs><title>Módulos personalizado UCAB</title><g id="Layer_2" data-name="Layer 2"><g id="ucab-modules"><circle class="cls-1" cx="122" cy="122" r="122"/><polygon class="cls-2" points="94.8 92.68 78.2 67.25 78.2 51.35 73.25 51.35 73.25 67.6 57 92.68 57 151.32 73.25 176.4 73.25 192.65 78.2 192.65 78.2 176.75 94.8 151.32 94.8 92.68"/><polygon class="cls-2" points="140.72 92.68 124.47 67.25 124.47 51.35 119.53 51.35 119.53 67.25 103.28 92.68 103.28 151.32 119.53 176.75 119.53 192.65 124.47 192.65 124.47 176.75 140.72 151.32 140.72 92.68"/><polygon class="cls-2" points="187 92.68 170.4 67.25 170.4 51.35 165.8 51.35 165.8 67.25 149.2 92.68 149.2 151.32 165.8 176.75 165.8 192.65 170.4 192.65 170.4 176.75 187 151.32 187 92.68"/></g></g></svg>